<?xml version="1.0" encoding="UTF-8"?>
<!DOCTYPE xml>
<svg xmlns="http://www.w3.org/2000/svg">
	<symbol id="file" viewBox="0 0 30 30" fill="none">
		<g xmlns="http://www.w3.org/2000/svg">
			<path d="M20.3327 3.91797C20.3327 2.03319 18.7995 0.5 16.9147 0.5H3.58463C1.69985 0.5 0.166656 2.03319 0.166656 3.91797V17.248C0.166656 19.1328 1.69985 20.666 3.58463 20.666H9.05338V22.9447H11.332V20.666H16.9147C18.7995 20.666 20.3327 19.1328 20.3327 17.248V11.7793H22.5544V9.50065H20.3327V3.91797ZM18.054 17.248C18.054 17.8762 17.5429 18.3874 16.9147 18.3874H3.58463C2.95644 18.3874 2.4453 17.8762 2.4453 17.248V3.91797C2.4453 3.28978 2.95644 2.77865 3.58463 2.77865H16.9147C17.5429 2.77865 18.054 3.28978 18.054 3.91797V17.248ZM27.0547 25.1094H29.3333V27.388C29.3333 28.6464 28.313 29.6667 27.0547 29.6667H24.833V27.388H27.0547V25.1094ZM15.7184 27.388H17.9971V29.6667H15.7184V27.388ZM20.2757 27.388H22.5544V29.6667H20.2757V27.388ZM29.3333 11.7793V14.0579H27.0547V11.7793H24.833V9.50065H27.0547C28.313 9.50065 29.3333 10.5209 29.3333 11.7793ZM27.0547 16.2227H29.3333V18.5013H27.0547V16.2227ZM27.0547 20.666H29.3333V22.9447H27.0547V20.666ZM11.332 27.388H13.5537V29.6667H11.332C10.0736 29.6667 9.05338 28.6464 9.05338 27.388V25.1094H11.332V27.388ZM13.4398 9.27279H15.7184V16.1087H8.88248V13.8301H11.8285L7.7634 9.76501L9.3747 8.15394L13.4398 12.2188V9.27279Z" fill="white" />
		</g>
	</symbol>
	<symbol id="select" viewBox="0 0 16 23" fill="none">
		<g>
			<g clip-path="url(#clip0_1_310)">
				<path fill-rule="evenodd" clip-rule="evenodd" d="M11.625 12.7411L7.06694 8.18306C6.82286 7.93898 6.42714 7.93898 6.18306 8.18306C5.93898 8.42714 5.93898 8.82286 6.18306 9.06694L11.625 14.5089L17.0669 9.06694C17.311 8.82286 17.311 8.42714 17.0669 8.18306C16.8229 7.93898 16.4271 7.93898 16.1831 8.18306L11.625 12.7411Z" fill="#6A6E72" />
			</g>
			<defs>
				<clipPath id="clip0_1_310">
					<rect width="24" height="24" fill="white" transform="translate(0 -1)" />
				</clipPath>
			</defs>
		</g>
	</symbol>
	<symbol id="site" viewBox="0 0 18 18" fill="none">
		<g width="18" height="18">
			<g clip-path="url(#clip0_1_382)">
				<path d="M16.8882 4.64886L16.8023 4.5C15.2437 1.81274 12.3371 0 9.01318 0C5.68909 0 2.78247 1.81274 1.22406 4.5L1.13818 4.64886C0.537048 5.73267 0.154541 6.95288 0.046875 8.25V9.75C0.154541 11.0471 0.537048 12.2673 1.13818 13.3508L1.22406 13.5C2.78247 16.1873 5.68909 18 9.01318 18C12.3371 18 15.2437 16.1873 16.8023 13.5L16.8882 13.3508C17.4893 12.267 17.8718 11.0471 17.9793 9.75V8.25C17.8718 6.95288 17.4893 5.73267 16.8882 4.64886ZM13.4978 8.25C13.4681 7.4621 13.3923 6.7088 13.2746 6H15.8824C16.1898 6.70129 16.3958 7.45679 16.4749 8.25H13.4978ZM9.01318 16.5C8.16522 16.5 7.25958 15.3446 6.66742 13.5H11.3591C10.7666 15.3446 9.86096 16.5 9.01318 16.5ZM6.28656 12C6.15454 11.3051 6.06519 10.5498 6.0304 9.75H11.9958C11.961 10.5498 11.8718 11.3051 11.7398 12H6.28656ZM6.0304 8.25C6.06519 7.4502 6.15454 6.69489 6.28656 6H11.7398C11.8718 6.69489 11.961 7.4502 11.9958 8.25H6.0304ZM9.01318 1.5C9.86096 1.5 10.7666 2.65576 11.3588 4.5H6.66742C7.25958 2.65576 8.16522 1.5 9.01318 1.5ZM14.9989 4.5H12.9472C12.6942 3.58502 12.3638 2.77881 11.9711 2.11011C13.1783 2.63068 14.217 3.46271 14.9989 4.5ZM6.05548 2.11011C5.66254 2.77881 5.33221 3.58502 5.07898 4.5H3.02747C3.80933 3.46271 4.84808 2.63068 6.05548 2.11011ZM2.1438 6H4.75159C4.63422 6.7088 4.55804 7.4621 4.52856 8.25H1.55109C1.63019 7.45679 1.836 6.70129 2.1438 6ZM4.52856 9.75C4.55804 10.5379 4.63385 11.2912 4.75159 12H2.1438C1.83636 11.2987 1.63055 10.5432 1.55145 9.75H4.52856ZM3.02747 13.5H5.07898C5.33221 14.415 5.66254 15.2212 6.05511 15.8899C4.84808 15.3693 3.80933 14.5373 3.02747 13.5ZM11.9707 15.8899C12.3638 15.2212 12.6942 14.415 12.9468 13.5H14.9985C14.217 14.5373 13.1783 15.3693 11.9707 15.8899ZM15.8828 12H13.275C13.3923 11.2912 13.4685 10.5379 13.4982 9.75H16.4756C16.3962 10.5432 16.1902 11.2987 15.8828 12Z" fill="#6A6E72" />
			</g>
			<defs>
				<clipPath id="clip0_1_382">
					<rect width="18" height="18" fill="white" />
				</clipPath>
			</defs>
		</g>
	</symbol>
	<symbol id="vkontakte" viewBox="0 0 19 19" fill="none">
		<g width="19" height="19">
			<g clip-path="url(#clip0_1_345)">
				<path fill-rule="evenodd" clip-rule="evenodd" d="M16.3521 10.9605C16.9823 11.5759 17.6476 12.1548 18.2128 12.8322C18.4625 13.1332 18.6989 13.4438 18.8798 13.7932C19.136 14.2898 18.9039 14.8363 18.4587 14.8659L15.6907 14.8647C14.9768 14.9239 14.4073 14.6365 13.9284 14.1484C13.5452 13.758 13.1903 13.3426 12.8218 12.9391C12.6707 12.7741 12.5126 12.6189 12.3237 12.4963C11.9458 12.251 11.6178 12.3261 11.4019 12.7202C11.182 13.121 11.1321 13.5649 11.1105 14.0116C11.0808 14.6634 10.8838 14.8348 10.2291 14.8646C8.82987 14.9306 7.50194 14.7189 6.26834 14.0131C5.18075 13.3908 4.33737 12.5123 3.60331 11.5178C2.17406 9.58129 1.07954 7.45337 0.0958344 5.26584C-0.125591 4.77298 0.0363423 4.50842 0.580136 4.49905C1.48313 4.48151 2.386 4.48276 3.29005 4.49781C3.65706 4.50318 3.90002 4.71368 4.04172 5.06039C4.53027 6.26166 5.12806 7.40455 5.87842 8.46393C6.07825 8.74597 6.28201 9.02801 6.57217 9.22652C6.89316 9.44633 7.13756 9.37348 7.28857 9.0159C7.38439 8.78917 7.42634 8.54496 7.44794 8.30212C7.51948 7.46667 7.52891 6.63266 7.40343 5.80014C7.3264 5.28057 7.03374 4.94422 6.5153 4.84589C6.25073 4.79577 6.29012 4.69732 6.41822 4.54631C6.64071 4.28587 6.84996 4.12375 7.26709 4.12375H10.3953C10.8878 4.22095 10.9972 4.44218 11.0646 4.93772L11.0673 8.41255C11.0619 8.60439 11.1631 9.17365 11.5086 9.30062C11.7852 9.39102 11.9675 9.16978 12.1334 8.99442C12.8824 8.19949 13.4169 7.26004 13.8945 6.28725C14.1064 5.85951 14.2887 5.41528 14.4653 4.97143C14.5961 4.64207 14.8014 4.48001 15.1724 4.48719L18.1832 4.48988C18.2724 4.48988 18.3628 4.49119 18.4492 4.50598C18.9566 4.59244 19.0956 4.81069 18.9389 5.3061C18.692 6.08337 18.2116 6.7311 17.7419 7.38183C17.2398 8.07657 16.7029 8.74753 16.2049 9.44639C15.7475 10.0846 15.7838 10.4063 16.3521 10.9605Z" fill="#597DA3" />
			</g>
			<defs>
				<clipPath id="clip0_1_345">
					<rect width="19" height="19" fill="white" />
				</clipPath>
			</defs>
		</g>
	</symbol>
	<symbol id="ok" viewBox="0 0 18 18" fill="none">
		<g width="18" height="18">
			<g clip-path="url(#clip0_1_357)">
				<path d="M3.54076 9.66077C3.08101 10.5645 3.60301 10.9965 4.79401 11.7345C5.80651 12.36 7.20526 12.5888 8.10376 12.6803C7.73551 13.0343 9.42301 11.4113 4.56301 16.086C3.53251 17.0738 5.19151 18.6585 6.22126 17.6918L9.00901 15.003C10.0763 16.0298 11.0993 17.0138 11.7968 17.6955C12.8273 18.666 14.4855 17.0948 13.4663 16.0898C13.3898 16.017 9.68851 12.4665 9.91426 12.684C10.824 12.5925 12.2018 12.3503 13.2023 11.7383L13.2015 11.7375C14.3925 10.9958 14.9145 10.5645 14.4615 9.66077C14.1878 9.14777 13.4498 8.71877 12.4673 9.46052C12.4673 9.46052 11.1405 10.4768 9.00076 10.4768C6.86026 10.4768 5.53426 9.46052 5.53426 9.46052C4.55251 8.71502 3.81151 9.14777 3.54076 9.66077Z" fill="#E08641" />
				<path d="M9.001 9.10649C11.6095 9.10649 13.7395 7.06799 13.7395 4.55849C13.7395 2.03849 11.6095 -7.62939e-06 9.001 -7.62939e-06C6.39175 -7.62939e-06 4.26175 2.03849 4.26175 4.55849C4.26175 7.06799 6.39175 9.10649 9.001 9.10649ZM9.001 2.30924C10.2827 2.30924 11.3282 3.31499 11.3282 4.55849C11.3282 5.79149 10.2827 6.79724 9.001 6.79724C7.71925 6.79724 6.67375 5.79149 6.67375 4.55849C6.673 3.31424 7.7185 2.30924 9.001 2.30924Z" fill="#E08641" />
			</g>
			<defs>
				<clipPath id="clip0_1_357">
					<rect width="18" height="18" fill="white" />
				</clipPath>
			</defs>
		</g>
	</symbol>
	<symbol id="facebook" viewBox="0 0 22 22" fill="none">
		<g width="22" height="22">
			<path fill-rule="evenodd" clip-rule="evenodd" d="M11.8423 20V12.2461H14.4947L14.8926 9.22333H11.8423V7.29375C11.8423 6.41887 12.0889 5.82265 13.3695 5.82265L15 5.82199V3.11835C14.718 3.0824 13.7501 3 12.6235 3C10.271 3 8.66048 4.40842 8.66048 6.99438V9.22333H6V12.2461H8.66048V20H11.8423Z" fill="#3B5998" />
			<mask id="mask0_1_370" style="mask-type:luminance" maskUnits="userSpaceOnUse" x="6" y="3" width="9" height="17">
				<path fill-rule="evenodd" clip-rule="evenodd" d="M11.8423 20V12.2461H14.4947L14.8926 9.22333H11.8423V7.29375C11.8423 6.41887 12.0889 5.82265 13.3695 5.82265L15 5.82199V3.11835C14.718 3.0824 13.7501 3 12.6235 3C10.271 3 8.66048 4.40842 8.66048 6.99438V9.22333H6V12.2461H8.66048V20H11.8423Z" fill="white" />
			</mask>
			<g mask="url(#mask0_1_370)">
			</g>
		</g>
	</symbol>
	<symbol id="instagram" viewBox="0 0 40 40" fill="none">
		<g>
			<path d="M20 11.8072C22.6506 11.8072 23.0121 11.8072 24.0964 11.8072C25.0602 11.8072 25.5422 12.0482 25.9036 12.1687C26.3855 12.4096 26.747 12.5301 27.1084 12.8916C27.4699 13.253 27.7108 13.6145 27.8313 14.0964C27.9518 14.4578 28.0723 14.9398 28.1928 15.9036C28.1928 16.988 28.1928 17.2289 28.1928 20C28.1928 22.7711 28.1928 23.0121 28.1928 24.0964C28.1928 25.0602 27.9518 25.5422 27.8313 25.9036C27.5904 26.3855 27.4699 26.747 27.1084 27.1084C26.747 27.4699 26.3855 27.7108 25.9036 27.8313C25.5422 27.9518 25.0602 28.0723 24.0964 28.1928C23.0121 28.1928 22.7711 28.1928 20 28.1928C17.2289 28.1928 16.988 28.1928 15.9036 28.1928C14.9398 28.1928 14.4578 27.9518 14.0964 27.8313C13.6145 27.5904 13.253 27.4699 12.8916 27.1084C12.5301 26.747 12.2892 26.3855 12.1687 25.9036C12.0482 25.5422 11.9277 25.0602 11.8072 24.0964C11.8072 23.0121 11.8072 22.7711 11.8072 20C11.8072 17.2289 11.8072 16.988 11.8072 15.9036C11.8072 14.9398 12.0482 14.4578 12.1687 14.0964C12.4096 13.6145 12.5301 13.253 12.8916 12.8916C13.253 12.5301 13.6145 12.2892 14.0964 12.1687C14.4578 12.0482 14.9398 11.9277 15.9036 11.8072C16.988 11.8072 17.3494 11.8072 20 11.8072ZM20 10C17.2289 10 16.988 10 15.9036 10C14.8193 10 14.0964 10.241 13.494 10.4819C12.8916 10.7229 12.2892 11.0843 11.6867 11.6867C11.0843 12.2892 10.8434 12.7711 10.4819 13.494C10.241 14.0964 10.1205 14.8193 10 15.9036C10 16.988 10 17.3494 10 20C10 22.7711 10 23.0121 10 24.0964C10 25.1807 10.241 25.9036 10.4819 26.506C10.7229 27.1084 11.0843 27.7108 11.6867 28.3133C12.2892 28.9157 12.7711 29.1566 13.494 29.5181C14.0964 29.759 14.8193 29.8795 15.9036 30C16.988 30 17.3494 30 20 30C22.6506 30 23.0121 30 24.0964 30C25.1807 30 25.9036 29.759 26.506 29.5181C27.1084 29.2771 27.7108 28.9157 28.3133 28.3133C28.9157 27.7108 29.1566 27.2289 29.5181 26.506C29.759 25.9036 29.8795 25.1807 30 24.0964C30 23.0121 30 22.6506 30 20C30 17.3494 30 16.988 30 15.9036C30 14.8193 29.759 14.0964 29.5181 13.494C29.2771 12.8916 28.9157 12.2892 28.3133 11.6867C27.7108 11.0843 27.2289 10.8434 26.506 10.4819C25.9036 10.241 25.1807 10.1205 24.0964 10C23.0121 10 22.7711 10 20 10Z" fill="#F53838" />
			<path d="M20 14.8193C17.1084 14.8193 14.8193 17.1084 14.8193 20C14.8193 22.8916 17.1084 25.1807 20 25.1807C22.8916 25.1807 25.1807 22.8916 25.1807 20C25.1807 17.1084 22.8916 14.8193 20 14.8193ZM20 23.3735C18.1928 23.3735 16.6265 21.9277 16.6265 20C16.6265 18.1928 18.0723 16.6265 20 16.6265C21.8072 16.6265 23.3735 18.0723 23.3735 20C23.3735 21.8072 21.8072 23.3735 20 23.3735Z" fill="#F53838" />
			<path d="M25.3012 15.9036C25.9666 15.9036 26.506 15.3642 26.506 14.6988C26.506 14.0334 25.9666 13.494 25.3012 13.494C24.6358 13.494 24.0964 14.0334 24.0964 14.6988C24.0964 15.3642 24.6358 15.9036 25.3012 15.9036Z" fill="#F53838" />
		</g>
	</symbol>
	<symbol id="youtube" viewBox="0 0 18 18" fill="none">
		<g width="18" height="18">
			<path d="M17.2984 3.75358C16.6487 2.98121 15.4491 2.66615 13.1581 2.66615H4.84177C2.49834 2.66615 1.27841 3.00153 0.631103 3.82384C0 4.6256 0 5.80692 0 7.4419V10.5582C0 13.7256 0.7488 15.3339 4.84177 15.3339H13.1581C15.1449 15.3339 16.2458 15.0558 16.958 14.3742C17.6884 13.6752 18 12.534 18 10.5582V7.4419C18 5.71768 17.9512 4.52938 17.2984 3.75358ZM11.5561 9.43026L7.77966 11.4039C7.69523 11.4481 7.60291 11.47 7.5107 11.47C7.4063 11.47 7.30214 11.4418 7.20987 11.386C7.03614 11.2807 6.93006 11.0924 6.93006 10.8893V6.95462C6.93006 6.75186 7.03585 6.56373 7.20923 6.4584C7.38267 6.35308 7.59838 6.34588 7.77832 6.43936L11.5547 8.40031C11.7469 8.50007 11.8675 8.69842 11.8678 8.91482C11.868 9.1314 11.7479 9.33004 11.5561 9.43026Z" fill="#C4302B" />
		</g>
	</symbol>
	<symbol id="delete" width="16" height="17" viewBox="0 0 16 17" fill="none">
		<g >
			<path fill-rule="evenodd" clip-rule="evenodd" d="M15.2983 2.65836C15.7545 2.20336 15.7545 1.46369 15.2983 1.00869C14.8433 0.552523 14.1048 0.552523 13.6486 1.00869L7.90398 6.75336L2.15814 1.00869C1.70314 0.552523 0.963476 0.552523 0.508476 1.00869C0.0523096 1.46369 0.0523096 2.20336 0.508476 2.65836L6.25314 8.40419L0.508476 14.1489C0.0523096 14.605 0.0523096 15.3435 0.508476 15.7985C0.963476 16.2547 1.70314 16.2547 2.15814 15.7985L7.90398 10.0539L13.6486 15.7985C14.1048 16.2547 14.8433 16.2547 15.2983 15.7985C15.7545 15.3435 15.7545 14.605 15.2983 14.1489L9.55364 8.40419L15.2983 2.65836Z" fill="#6A6E72" />
		</g>
	</symbol>
</svg>
